# Blender v2.78 (sub 0) OBJ File: ''
# www.blender.org
mtllib pressureplate.mtl
g Plane.000_Plane.004
v -0.174925 0.051277 -0.174925
v 0.174925 0.051277 -0.174925
v 0.174925 0.051277 0.174925
v -0.174925 0.051277 0.174925
v 0.174925 0.256272 0.174925
v -0.174925 0.256272 0.174925
v 0.174925 0.256272 -0.174925
v -0.174925 0.256272 -0.174925
v -1.506636 0.256272 -1.506636
v -1.494112 0.256272 -1.536873
v 1.494112 0.256272 -1.536873
v 1.506636 0.256272 -1.506636
v 1.506636 0.256272 1.506636
v 1.494112 0.256272 1.536873
v -1.494112 0.256272 1.536873
v -1.506636 0.256272 1.506636
v 1.536873 0.256272 -1.494112
v 1.536873 0.256272 1.494112
v -1.536873 0.256272 1.494112
v -1.536873 0.256272 -1.494112
v -1.494112 0.382065 1.494112
v 1.494112 0.382065 1.494112
v 1.494112 0.382065 -1.494112
v -1.494112 0.382065 -1.494112
v -1.536873 0.339303 1.494112
v -1.494112 0.339303 1.536873
v -1.536873 0.339303 -1.494112
v -1.494112 0.339303 -1.536873
v 1.494112 0.339303 1.536873
v 1.494112 0.339303 -1.536873
v 1.536873 0.339303 -1.494112
v 1.536873 0.339303 1.494112
vt 0.8597 0.8312
vt 0.8597 0.8583
vt 0.8361 0.8616
vt 0.8361 0.8345
vt 0.6724 0.8528
vt 0.6724 0.8149
vt 0.8292 0.6710
vt 0.8327 0.6723
vt 0.8327 0.9954
vt 0.8292 0.9967
vt 0.6312 0.8149
vt 0.6312 0.8528
vt 0.4744 0.9967
vt 0.4709 0.9954
vt 0.4709 0.6723
vt 0.4744 0.6710
vt 0.8277 1.0000
vt 0.4759 1.0000
vt 0.4759 0.6677
vt 0.8277 0.6677
vt 0.8907 0.8375
vt 0.8907 0.8645
vt 0.8671 0.8612
vt 0.8671 0.8342
vt 0.9247 0.8120
vt 0.9203 0.8387
vt 0.8964 0.8387
vt 0.9009 0.8120
vt 0.9203 0.7853
vt 0.8964 0.7853
vt 0.4759 0.6631
vt 0.4759 0.3400
vt 0.8277 0.3400
vt 0.8277 0.6631
vt 0.8466 0.8301
vt 0.8457 0.8236
vt 0.8516 0.8262
vt 0.9620 0.2284
vt 0.9675 0.2317
vt 0.9620 0.2350
vt 0.8277 0.6677
vt 0.4759 0.6677
vt 0.4709 0.6631
vt 0.4709 0.3400
vt 0.8327 0.3400
vt 0.8327 0.6631
vt 0.8361 0.8247
vt 0.8421 0.5937
vt 0.8516 0.5926
vt 0.9903 0.4634
vt 0.9524 0.2350
vt 1.0000 0.4634
vt 0.9524 0.2284
vt 0.9903 0.0000
vt 1.0000 0.0000
vt 0.8370 0.8312
vt 0.8576 0.8301
vt 0.8516 0.5991
vt 0.8612 0.6002
vt 0.8671 0.8312
vt 0.8525 0.5926
vt 0.8621 0.5937
vt 0.8909 0.6065
vt 0.8909 0.5976
vt 0.8980 0.5976
vt 0.8980 0.6065
vt 0.8945 0.5926
vt 0.8671 0.5976
vt 0.4759 0.3354
vt 0.8277 0.3354
vn 0.0000 -0.0000 1.0000
vn 0.0000 -1.0000 -0.0000
vn 1.0000 0.0000 0.0000
vn -1.0000 0.0000 0.0000
vn 0.0000 0.0000 -1.0000
vn -0.3416 0.8756 0.3416
vn 0.0000 0.9239 0.3827
vn 0.0000 0.9239 -0.3827
vn -0.3416 0.8756 -0.3416
vn -0.6861 0.6861 0.2418
vn -0.2418 0.6861 0.6861
vn -0.6861 0.6861 -0.2418
vn -0.2418 0.6861 -0.6861
vn 0.0000 0.7071 0.7071
vn 0.0000 0.7071 -0.7071
vn -0.3827 0.0000 0.9239
vn -0.3827 0.0000 -0.9239
vn -0.9239 0.0000 -0.3827
vn -0.9239 0.0000 0.3827
vn 0.9239 0.0000 0.3827
vn 0.9239 0.0000 -0.3827
vn 0.7071 0.0000 -0.7071
vn 0.7071 0.0000 0.7071
vn 0.5774 0.5773 0.5774
vn 0.6861 0.6861 0.2418
vn 0.6861 0.6861 -0.2418
vn 0.5774 0.5773 -0.5774
usemtl None.009
s 1
f 4/1/1 3/2/1 5/3/1 6/4/1
s 2
f 7/5/2 8/6/2 9/7/2 10/8/2 11/9/2 12/10/2
f 6/11/2 5/12/2 13/13/2 14/14/2 15/15/2 16/16/2
f 5/12/2 7/5/2 12/10/2 17/17/2 18/18/2 13/13/2
f 15/15/2 19/19/2 16/16/2
f 18/18/2 14/14/2 13/13/2
f 20/20/2 10/8/2 9/7/2
f 11/9/2 17/17/2 12/10/2
f 8/6/2 6/11/2 16/16/2 19/19/2 20/20/2 9/7/2
s 3
f 3/21/3 2/22/3 7/23/3 5/24/3
s 4
f 1/25/4 4/26/4 6/27/4 8/28/4
s 5
f 2/29/5 1/25/5 8/28/5 7/30/5
s 6
f 21/31/6 22/32/7 23/33/8 24/34/9
f 25/35/10 26/36/11 21/37/6
f 27/38/12 24/39/9 28/40/13
f 27/41/12 25/42/10 21/31/6 24/34/9
f 26/43/11 29/44/14 22/32/7 21/31/6
f 30/45/15 28/46/13 24/34/9 23/33/8
s 7
f 15/47/16 14/48/1 29/49/1 26/36/16
f 11/50/5 10/51/17 28/40/17 30/52/5
f 20/53/18 19/54/19 25/55/19 27/38/18
f 20/53/18 27/38/18 28/40/17 10/51/17
f 25/35/19 19/56/19 15/47/16 26/36/16
s 8
f 18/57/20 17/58/21 31/59/21 32/60/20
f 31/59/21 17/58/21 11/61/22 30/62/22
f 18/63/20 32/64/20 29/65/23 14/66/23
s 9
f 29/65/24 32/64/25 22/67/25
f 31/59/26 30/62/27 23/68/26
f 32/69/25 31/70/26 23/33/26 22/32/25
g Plane.003
v -1.912324 0.186821 1.912324
v -1.896040 0.186821 1.951639
v 1.896040 0.186821 1.951639
v 1.912324 0.186821 1.912324
v 1.624762 0.186821 1.624762
v -1.624762 0.186821 1.624762
v 1.912324 0.186821 -1.912324
v 1.896040 0.186821 -1.951639
v -1.896040 0.186821 -1.951639
v -1.912324 0.186821 -1.912324
v -1.624762 0.186821 -1.624762
v 1.624762 0.186821 -1.624762
v 1.951639 0.186821 -1.896040
v 1.951639 0.186821 1.896040
v -1.951639 0.186821 1.896040
v -1.951639 0.186821 -1.896040
v 1.583555 0.186821 -1.583555
v 1.583555 0.186821 1.583555
v -1.583555 0.186821 -1.583555
v -1.583555 0.186821 1.583555
v -1.876008 -0.000000 2.000000
v 1.876008 -0.000000 2.000000
v 1.876008 0.146757 2.000000
v -1.876008 0.146757 2.000000
v -2.000000 0.146757 1.876008
v -2.000000 -0.000000 1.876008
v 2.000000 -0.000000 1.876008
v 2.000000 0.146757 1.876008
v -1.876008 0.146757 -2.000000
v -1.876008 0.000000 -2.000000
v -2.000000 0.000000 -1.876008
v -2.000000 0.146757 -1.876008
v 1.876008 0.000000 -2.000000
v 1.876008 0.146757 -2.000000
v 2.000000 0.146757 -1.876008
v 2.000000 0.000000 -1.876008
v 1.551382 0.154648 -1.551382
v -1.551382 0.154648 -1.551382
v -1.551382 0.051277 -1.551382
v 1.551382 0.051277 -1.551382
v -1.551382 0.154648 1.551382
v -1.551382 0.051277 1.551382
v 1.551382 0.154648 1.551382
v 1.551382 0.051277 1.551382
v -0.174925 0.051277 -0.174925
v 0.174925 0.051277 -0.174925
v 0.174925 0.051277 0.174925
v -0.174925 0.051277 0.174925
vt 0.4606 0.0095
vt 0.4652 0.0112
vt 0.4652 0.4212
vt 0.4606 0.4229
vt 0.4267 0.3919
vt 0.4267 0.0406
vt 0.0103 0.4229
vt 0.0057 0.4212
vt 0.0057 0.0112
vt 0.0103 0.0095
vt 0.0442 0.0406
vt 0.0442 0.3919
vt 0.0122 0.4272
vt 0.4586 0.4272
vt 0.4586 0.0052
vt 0.0122 0.0052
vt 0.0490 0.3874
vt 0.4219 0.3874
vt 0.0490 0.0450
vt 0.4219 0.0450
vt 0.9247 0.7665
vt 0.9316 0.4764
vt 0.9486 0.4744
vt 0.9417 0.7644
vt 0.9443 0.7832
vt 0.9274 0.7853
vt 0.8964 0.8544
vt 0.8964 0.8387
vt 0.9171 0.8387
vt 0.9171 0.8544
vt 0.8532 0.3058
vt 0.8361 0.3058
vt 0.8361 0.2868
vt 0.8532 0.2868
vt 0.9036 0.4744
vt 0.9205 0.4764
vt 0.9178 0.4952
vt 0.9009 0.4932
vt 0.9078 0.7832
vt 0.9247 0.7853
vt 0.8838 0.0000
vt 0.9009 0.0000
vt 0.8838 0.5926
vt 0.9009 0.5926
vt 0.9474 0.7690
vt 0.9486 0.7774
vt 0.9114 0.8590
vt 0.9021 0.8590
vt 0.8582 0.2920
vt 0.8582 0.3005
vt 0.9247 0.4822
vt 0.9235 0.4906
vt 0.4709 0.0134
vt 0.4709 0.4190
vt 0.0146 0.0000
vt 0.4563 0.0000
vt 0.4563 0.4324
vt 0.0146 0.4324
vt 0.0000 0.4190
vt 0.0000 0.0134
vt 0.8671 0.8342
vt 0.8671 0.5942
vt 0.8790 0.5926
vt 0.8790 0.8325
vt 0.8909 0.5942
vt 0.8909 0.8342
vt 0.8790 0.8325
vt 0.9403 0.4744
vt 0.9009 0.2372
vt 0.9129 0.2372
vt 0.9524 0.4744
vt 0.8361 0.0000
vt 0.8361 0.3354
vt 0.6741 0.1866
vt 0.6741 0.1488
vt 0.4709 0.3354
vt 0.4709 0.0000
vt 0.6329 0.1488
vt 0.6329 0.1866
vt 0.9403 0.0000
vt 0.9524 0.0000
vt 0.0000 0.4458
vt 0.0146 0.4324
vt 0.4563 0.4324
vt 0.4709 0.4458
vt 0.4709 0.8514
vt 0.4563 0.8648
vt 0.0146 0.8648
vt 0.0000 0.8514
vt 0.4181 0.0485
vt 0.0528 0.0485
vt 0.4181 0.3839
vt 0.0528 0.3839
vn 0.0000 1.0000 -0.0000
vn -0.3827 0.0000 0.9239
vn 0.3827 0.0000 0.9239
vn 0.3190 0.3590 0.8771
vn -0.3190 0.3590 0.8771
vn -0.8771 0.3590 0.3190
vn -0.9239 0.0000 0.3827
vn 0.9239 0.0000 0.3827
vn 0.8771 0.3590 0.3190
vn -0.3190 0.3590 -0.8771
vn -0.3827 0.0000 -0.9239
vn -0.9239 0.0000 -0.3827
vn -0.8771 0.3590 -0.3190
vn 0.3827 0.0000 -0.9239
vn 0.3190 0.3590 -0.8771
vn 0.8771 0.3590 -0.3190
vn 0.9239 0.0000 -0.3827
vn -0.4400 0.5935 0.6739
vn -0.6739 0.5935 0.4400
vn 0.6739 0.5935 0.4400
vn 0.4400 0.5935 0.6739
vn -0.6739 0.5935 -0.4400
vn -0.4400 0.5935 -0.6739
vn 0.4400 0.5935 -0.6739
vn 0.6739 0.5935 -0.4400
vn 0.0000 0.0000 1.0000
vn 1.0000 0.0000 0.0000
vn 0.0000 0.0000 -1.0000
vn -1.0000 0.0000 0.0000
vn 0.0000 -1.0000 -0.0000
vn 0.7071 0.7071 0.0000
vn 0.0000 0.7071 -0.7071
vn -0.7071 0.7071 0.0000
vn 0.0000 0.7071 0.7071
usemtl None.009
s 1
f 33/71/28 34/72/28 35/73/28 36/74/28 37/75/28 38/76/28
f 39/77/28 40/78/28 41/79/28 42/80/28 43/81/28 44/82/28
f 45/83/28 40/78/28 39/77/28
f 36/74/28 46/84/28 45/83/28 39/77/28 44/82/28 37/75/28
f 35/73/28 46/84/28 36/74/28
f 47/85/28 34/72/28 33/71/28
f 41/79/28 48/86/28 42/80/28
f 37/75/28 44/82/28 49/87/28 50/88/28
f 44/82/28 43/81/28 51/89/28 49/87/28
f 38/76/28 37/75/28 50/88/28 52/90/28
f 42/80/28 48/86/28 47/85/28 33/71/28 38/76/28 43/81/28
f 43/81/28 38/76/28 52/90/28 51/89/28
s 2
f 53/91/29 54/92/30 55/93/31 56/94/32
f 53/91/29 56/94/32 57/95/33 58/96/34
f 55/97/31 54/98/30 59/99/35 60/100/36
f 61/101/37 62/102/38 63/103/39 64/104/40
f 65/105/41 66/106/42 67/107/43 68/108/44
f 59/109/35 68/108/44 67/107/43 60/110/36
f 63/103/39 58/111/34 57/112/33 64/104/40
f 65/113/41 62/102/38 61/101/37 66/114/42
f 57/95/33 56/94/32 34/115/45 47/116/46
f 55/97/31 60/100/36 46/117/47 35/118/48
f 61/101/37 64/104/40 48/119/49 41/120/50
f 67/107/43 66/106/42 40/121/51 45/122/52
f 35/73/48 34/72/45 56/123/32 55/124/31
f 47/85/46 48/86/49 64/125/40 57/126/33
f 45/83/52 46/84/47 60/127/36 67/128/43
f 41/79/50 40/78/51 66/129/42 61/130/37
s 3
f 69/131/53 70/132/53 71/133/53 72/134/53
s 4
f 70/135/54 73/136/54 74/137/54 71/133/54
s 5
f 73/138/55 75/139/55 76/140/55 74/141/55
s 6
f 72/142/28 71/143/28 77/144/28 78/145/28
f 74/146/28 76/147/28 79/148/28 80/149/28
f 76/147/28 72/142/28 78/145/28 79/148/28
f 71/143/28 74/146/28 80/149/28 77/144/28
s 7
f 75/139/56 69/150/56 72/151/56 76/140/56
s 8
f 53/152/57 58/153/57 63/154/57 62/155/57 65/156/57 68/157/57 59/158/57 54/159/57
s 9
f 51/89/58 52/90/58 73/160/58 70/161/58
s 10
f 52/90/59 50/88/59 75/162/59 73/160/59
s 11
f 50/88/60 49/87/60 69/163/60 75/162/60
s 12
f 49/87/61 51/89/61 70/161/61 69/163/61
